PathFileType	4	(X/Y/Z)	D:\Long Term Storage\D'Arcy Smith\Coord6.trc
DataRate	CameraRate	NumFrames	NumMarkers	Units	OrigDataRate	OrigDataStartFrame	OrigNumFrames
120.00	120.00	      48	4	mm	120.00	3040	      4863
Frame#	Time	M1			M2			M3			M4			
		X1	Y1	Z1	X2	Y2	Z2	X3	Y3	Z3	X4	Y4	Z4	

3040	25.325	1106.00269	324.23145	393.93103	1611.20886	367.35629	306.65274							
3041	25.333	1110.12292	328.12115	379.92160	1611.67517	371.15488	302.21976							
3042	25.342	1113.76965	332.43182	366.33359	1612.15906	374.81717	298.60629							
3043	25.350	1117.44849	336.99072	353.32001	1613.01611	377.90887	295.30740							
3044	25.358	1120.72156	342.07678	341.12427	1613.69824	380.72565	292.76816							
3045	25.367	1123.36365	346.89911	329.66714	1614.51672	383.31479	290.74838							
3046	25.375	1126.79675	351.72641	318.90039	1615.99878	385.11398	289.23639							
3047	25.383	1129.34448	356.55975	309.03595	1616.88245	386.95483	288.23657							
3048	25.392	1130.14514	361.73499	300.82831	1617.99194	388.13953	287.76791							
3049	25.400	1131.78894	366.67480	293.24518	1619.32288	388.80511	287.71933							
3050	25.408	1132.68762	370.05609	287.00772	1620.57251	389.00253	288.10941							
3051	25.417	1132.65698	373.39172	282.05469	1622.06836	388.63626	288.99997							
3052	25.425	1132.28833	376.24304	278.25339	1623.14954	388.14685	290.16388							
3053	25.433	1131.00330	378.04822	275.79544	1624.81641	386.64035	292.10004							
3054	25.442	1129.26013	379.40793	274.59775	1626.18982	384.89890	294.37762							
3055	25.450	1126.93994	379.82004	274.64935	1627.45776	382.46872	297.33081							
3056	25.458	1123.10107	380.22791	275.66080	1628.69629	379.69458	300.75568							
3057	25.467	1121.16321	379.25488	277.44937	1630.14087	376.27432	304.96307							
3058	25.475	1118.54602	377.52164	280.22144	1631.27222	372.59262	310.00821							
3059	25.483	1114.87537	375.22665	283.86804	1633.08972	368.23196	316.20505							
3060	25.492	1111.32544	372.44553	288.08881	1634.14343	363.50549	323.03934							
3061	25.500	1108.00549	369.13968	292.96219	1635.19641	358.13373	330.68799							
3062	25.508	1104.97144	365.34512	298.21173	1636.25928	353.02835	339.51392							
3063	25.517	1101.03064	361.39825	304.55515	1637.62720	347.15442	348.68076							
3064	25.525	1097.79089	356.89670	311.28763	1638.82654	341.77560	359.26709							
3065	25.533	1093.89453	352.30978	318.73746	1639.75012	336.51511	371.93018							
3066	25.542	1090.79480	347.40268	326.47742	1641.10620	331.04932	384.50250							
3067	25.550	1087.28687	342.30362	335.09735	1641.90723	325.83499	397.54266							
3068	25.558	1083.92542	337.19092	344.38315	1642.71338	321.31644	411.62592							
3069	25.567	1080.61523	331.85397	354.34064	1643.23718	316.54874	425.59686							
3070	25.575	1077.42554	327.02441	364.95767	1643.38123	312.41989	440.41724							
3071	25.583	1074.19800	322.31198	376.38046	1643.44727	308.80060	455.00009							
3072	25.592	1071.10974	318.04828	388.84988	1643.37756	305.35580	470.57428							
3073	25.600	1068.13525	313.98508	401.19748	1643.72644	303.40961	486.79929							
3074	25.608	1065.44482	310.37872	414.41632	1643.10815	301.07809	502.24634							
3075	25.617	1062.74390	307.66531	428.27344	1642.52612	299.85498	518.17609							
3076	25.625	1060.51880	305.43716	442.05548	1641.70740	299.27988	534.22406							
3077	25.633	1057.80371	304.07901	455.70627	1640.71838	299.42075	549.87854							
3078	25.642	1055.61475	302.89911	469.87894	1639.25134	300.51263	565.34076							
3079	25.650	1053.66650	302.07483	484.10745	1637.75842	302.24664	580.31311							
3080	25.658	1052.29395	302.11484	498.24557	1635.38147	303.87915	594.01465							
3081	25.667	1050.80969	301.92593	512.36108	1633.62122	307.96262	607.86584							
3082	25.675	1048.82019	303.00647	526.06488	1631.42529	311.75934	620.80133							
3083	25.683	1047.65137	303.56403	539.47681	1629.21790	316.14795	633.18066							
3084	25.692	1045.99243	305.16071	553.41449	1626.59644	320.46967	643.96576							
3085	25.700	1044.35913	307.08228	566.58795	1624.72815	326.04297	654.88690							
3086	25.708	1043.28333	310.07489	579.43439	1621.46802	330.56107	663.82025							
3087	25.717	1041.48853	313.42542	592.04102	1619.32324	334.73065	671.92194							
